<svg xmlns="http://www.w3.org/2000/svg" viewBox="0 0 496.158 496.158">
  <path
    fill="#d61e1e"
    d="M248.082.003C111.07.003 0 111.063 0 248.085c0 137.001 111.07 248.07 248.082 248.07 137.006 0 248.076-111.069 248.076-248.07C496.158 111.062 385.088.003 248.082.003z"
  ></path>
  <path
    fill="#f4eded"
    d="M248.082 39.002C132.609 39.002 39 132.602 39 248.084c0 115.463 93.609 209.072 209.082 209.072 115.467 0 209.076-93.609 209.076-209.072 0-115.482-93.609-209.082-209.076-209.082z"
  ></path>
  <g fill="#5b5147">
    <path d="M145.23 144.237h-24.44c-3.21 0-5.819 4.741-5.819 10.605s2.609 10.611 5.819 10.611h24.44c3.217 0 5.826-4.747 5.826-10.611s-2.609-10.605-5.826-10.605z"></path>
    <path d="M380.289 172.06H226.545c-2.025-9.851-9.416-17.176-18.244-17.176h-92.199c-10.403 0-18.818 10.125-18.818 22.592V328.9c0 10.254 8.314 18.581 18.58 18.581h264.425c10.262 0 18.586-8.327 18.586-18.581V190.655c0-10.275-8.324-18.595-18.586-18.595z"></path>
  </g>
  <path
    fill="#f4eded"
    d="M248.076 166.711c-51.133 0-92.604 41.462-92.604 92.602 0 51.146 41.471 92.608 92.604 92.608 51.139 0 92.6-41.462 92.6-92.608 0-51.139-41.461-92.602-92.6-92.602z"
  ></path>
  <path
    fill="#5b5147"
    d="M248.086 171.416c-48.547 0-87.909 39.355-87.909 87.909 0 48.537 39.362 87.898 87.909 87.898s87.896-39.361 87.896-87.898c-.001-48.554-39.353-87.909-87.896-87.909z"
  ></path>
  <path
    fill="#f4eded"
    d="M248.611 205.005c-29.992 0-54.312 24.31-54.312 54.308 0 29.991 24.319 54.321 54.312 54.321s54.318-24.33 54.318-54.321c.001-29.998-24.326-54.308-54.318-54.308z"
  ></path>
  <path
    fill="#5b5147"
    d="M248.611 209.528c-27.494 0-49.789 22.286-49.789 49.786 0 27.494 22.295 49.798 49.789 49.798s49.795-22.304 49.795-49.798c0-27.5-22.299-49.786-49.795-49.786z"
  ></path>
  <path
    fill="#f4eded"
    d="M230.224 215.002c-14.401 0-26.065 11.674-26.065 26.067 0 14.399 11.664 26.073 26.065 26.073 14.391 0 26.065-11.674 26.065-26.073 0-14.393-11.675-26.067-26.065-26.067zm-70.526-49.549h-45.712c-3.756 0-6.805 3.045-6.805 6.792v25.594c0 3.04 2.004 5.575 4.756 6.448.65.209 1.328.35 2.049.35h45.712a6.79 6.79 0 006.793-6.798v-25.594a6.79 6.79 0 00-6.793-6.792z"
  ></path>
  <path
    fill="#d61e1e"
    d="M85.85 60.394A249.49 249.49 0 0060.394 85.85l349.914 349.914a249.59 249.59 0 0025.456-25.456L85.85 60.394z"
  ></path>
</svg>
